<svg viewBox="0 0 128 128" xmlns="http://www.w3.org/2000/svg" xmlns:xlink="http://www.w3.org/1999/xlink"><circle cx="64" cy="64" fill="#735EA5" r="64"/><defs><circle cx="64" cy="64" id="a" r="64"/></defs><clipPath id="b"><use overflow="visible" xlink:href="#a"/></clipPath><path clip-path="url(#b)" fill="#684E9B" d="M20.328 46.444l45.989 45.989-16.359 9.192 4 4.042-.753.48L75.058 128H128V64.156L95.917 32l-44.501 3.642-9.363 9.363z"/><path d="M91.385 107.6H56.478a4.412 4.412 0 01-4.412-4.412v-7.37a4.413 4.413 0 014.413-4.413h34.907a4.413 4.413 0 014.413 4.413v7.37a4.414 4.414 0 01-4.414 4.412z" fill="#433644"/><path d="M51.416 61.231l3.813 10.531a6.811 6.811 0 006.404 4.492h14.236" fill="none" stroke="#F6F7F7" stroke-miterlimit="10" stroke-width="4"/><path d="M64.375 61.062l-2.514 10.015a1 1 0 00.972 1.235h6.917l-5.375-11.25z" fill="#EF6C88"/><path fill="#FFCC04" d="M89.068 91.405h-14.52l-9.886-28.081 21.19-2.947z"/><path d="M58.669 48.339H24.933a6.546 6.546 0 01-4.606-1.895c-.8-.793-.8-2.086 0-2.879a6.546 6.546 0 014.606-1.895h33.736v6.669z" fill="#D3DBE2"/><defs><path d="M58.669 48.339H24.933a6.546 6.546 0 01-4.606-1.895c-.8-.793-.8-2.086 0-2.879a6.546 6.546 0 014.606-1.895h33.736v6.669z" id="c"/></defs><clipPath id="d"><use overflow="visible" xlink:href="#c"/></clipPath><g clip-path="url(#d)" fill="none" stroke="#FFF" stroke-miterlimit="10" stroke-width="2"><path d="M28.47 39.91l-9.542 9.542M34.67 39.91l-9.542 9.542m15.741-9.542l-9.541 9.542m15.741-9.542l-9.542 9.542m15.742-9.542l-9.542 9.542m15.741-9.542l-9.541 9.542"/></g><path d="M46.232 57.208h1.639V31.809h-1.639a7.034 7.034 0 00-7.034 7.034v11.331a7.034 7.034 0 007.034 7.034z" fill="#433644"/><path d="M82.636 63.593H52.412a4.54 4.54 0 01-4.541-4.541V30.957a4.54 4.54 0 014.541-4.541h30.224c10.266 0 18.588 8.322 18.588 18.588 0 10.267-8.322 18.589-18.588 18.589z" fill="#FFCC04"/><defs><path id="e" d="M89.068 91.405h-14.52l-9.886-28.081 21.19-2.947z"/></defs><clipPath id="f"><use overflow="visible" xlink:href="#e"/></clipPath><g clip-path="url(#f)" opacity=".6" fill="#F39C1E"><path d="M94.453 85.477H81.485a1.928 1.928 0 01-1.923-1.923c0-1.058.865-1.923 1.923-1.923h12.967c1.058 0 1.923.865 1.923 1.923a1.927 1.927 0 01-1.922 1.923zm0-14.6H76.47a1.928 1.928 0 01-1.923-1.923c0-1.058.865-1.923 1.923-1.923h17.982c1.058 0 1.923.865 1.923 1.923a1.927 1.927 0 01-1.922 1.923zm0 7.3H78.788a1.928 1.928 0 01-1.923-1.923c0-1.058.865-1.923 1.923-1.923h15.665c1.058 0 1.923.865 1.923 1.923a1.929 1.929 0 01-1.923 1.923z"/></g><path d="M88.055 81.631h-3.347l.521 3.846h3.225l-.399-3.846zm-.757-7.299H83.75l.521 3.846h3.426l-.399-3.846zm-.756-7.301h-3.788l.559 3.846h3.628l-.399-3.846z" fill="#F39C1E"/><path fill="none" stroke="#342934" stroke-linecap="round" stroke-miterlimit="10" stroke-width="6" d="M52.065 99.503h43.997"/><path d="M52.705 59.053V30.957a4.54 4.54 0 014.541-4.541h-4.833a4.54 4.54 0 00-4.541 4.541v28.095a4.54 4.54 0 004.541 4.541h4.833a4.54 4.54 0 01-4.541-4.54z" fill="#FFDB4B"/><path d="M82.636 26.417h-4.833c10.266 0 18.588 8.322 18.588 18.588s-8.322 18.588-18.588 18.588h4.833c10.266 0 18.588-8.322 18.588-18.588s-8.322-18.588-18.588-18.588z" fill="#F39C1E" opacity=".34"/><path d="M57.618 32.939a1.13 1.13 0 011.131-1.131h14.422a1.131 1.131 0 010 2.262H58.749a1.131 1.131 0 01-1.131-1.131zm0 5.523a1.13 1.13 0 011.131-1.131h14.422a1.131 1.131 0 010 2.262H58.749a1.131 1.131 0 01-1.131-1.131zm0 5.523a1.13 1.13 0 011.131-1.131h14.422a1.131 1.131 0 010 2.262H58.749a1.131 1.131 0 01-1.131-1.131z" fill="#FFF"/></svg>