<svg viewBox="0 0 50 50" xmlns="http://www.w3.org/2000/svg"><path fill="#D2D2D2" d="M.622 20.792h13.09v8.416H.622z"/><path d="M.556 24.038h13.222a2.347 2.347 0 002.347-2.347v-1.798a2.347 2.347 0 00-2.347-2.347H.556a2.347 2.347 0 00-2.347 2.347v1.798a2.347 2.347 0 002.347 2.347zm0 8.416h13.222a2.347 2.347 0 002.347-2.347V28.31a2.347 2.347 0 00-2.347-2.347H.556A2.347 2.347 0 00-1.79 28.31v1.798a2.347 2.347 0 002.347 2.347z" fill="#E7E3E6"/><circle cx="12.667" cy="29.208" fill="#EC6E62" r="1.249"/><circle cx="9.117" cy="29.208" fill="#85BD57" r="1.249"/><circle cx="12.667" cy="20.792" fill="#EC6E62" r="1.249"/><circle cx="9.117" cy="20.792" fill="#85BD57" r="1.249"/><path fill="#4E4C4D" d="M31.053 28.742h17.962V40.63H31.053z"/><path d="M30.977 28.737H49.09a2.7 2.7 0 002.7-2.7v-2.069a2.7 2.7 0 00-2.7-2.7H30.977a2.7 2.7 0 00-2.7 2.7v2.069a2.7 2.7 0 002.7 2.7zm0 9.683H49.09a2.7 2.7 0 002.7-2.7v-2.069a2.7 2.7 0 00-2.7-2.7H30.977a2.7 2.7 0 00-2.7 2.7v2.07a2.7 2.7 0 002.7 2.7zm0 9.679H49.09a2.7 2.7 0 002.7-2.7v-2.07a2.7 2.7 0 00-2.7-2.7H30.977a2.7 2.7 0 00-2.7 2.7v2.07a2.7 2.7 0 002.7 2.7z" fill="#656766"/><circle cx="47.812" cy="44.364" fill="#EC6E62" r="1.437"/><circle cx="43.727" cy="44.364" fill="#85BD57" r="1.437"/><circle cx="47.812" cy="34.686" fill="#EC6E62" r="1.437"/><circle cx="43.727" cy="34.686" fill="#85BD57" r="1.437"/><circle cx="47.812" cy="25.002" fill="#EC6E62" r="1.437"/><circle cx="43.727" cy="25.002" fill="#85BD57" r="1.437"/><path fill="#4E4C4D" d="M31.053 9.375h17.962v11.888H31.053z"/><path d="M30.977 9.37H49.09a2.7 2.7 0 002.7-2.7V4.601a2.7 2.7 0 00-2.7-2.7H30.977a2.7 2.7 0 00-2.7 2.7v2.07a2.7 2.7 0 002.7 2.7zm0 9.684H49.09a2.7 2.7 0 002.7-2.7v-2.07a2.7 2.7 0 00-2.7-2.7H30.977a2.7 2.7 0 00-2.7 2.7v2.07a2.7 2.7 0 002.7 2.7z" fill="#656766"/><circle cx="47.812" cy="15.319" fill="#EC6E62" r="1.437"/><circle cx="43.727" cy="15.319" fill="#85BD57" r="1.437"/><circle cx="47.812" cy="5.636" fill="#EC6E62" r="1.437"/><circle cx="43.727" cy="5.636" fill="#85BD57" r="1.437"/><path d="M24.345 25.29l-3.536 3.535a.914.914 0 01-1.293-1.292l2.886-2.89-2.886-2.885a.914.914 0 01-.001-1.291l.002-.002a.914.914 0 011.294-.002l3.534 3.534a.914.914 0 010 1.293z" fill="#53B1E2"/></svg>